<svg width="32" height="32" viewBox="0 0 32 32" xmlns="http://www.w3.org/2000/svg">
  <defs>
    <linearGradient id="faviconGradient" x1="0%" y1="0%" x2="100%" y2="0%">
      <stop offset="0%" style="stop-color:#00d4ff;stop-opacity:1" />
      <stop offset="50%" style="stop-color:#b026ff;stop-opacity:1" />
      <stop offset="100%" style="stop-color:#ff0080;stop-opacity:1" />
    </linearGradient>
  </defs>
  <rect width="32" height="32" rx="4" fill="#0a0a0f"/>
  <!-- Infinity Symbol -->
  <path d="M 6 16 
           C 6 11, 9 8, 14 8 
           C 19 8, 22 11, 22 16
           C 22 21, 19 24, 14 24
           C 9 24, 6 21, 6 16
           M 18 16
           C 18 11, 21 8, 26 8
           C 31 8, 34 11, 34 16
           C 34 21, 31 24, 26 24
           C 21 24, 18 21, 18 16
           M 22 16
           L 18 16" 
        stroke="url(#faviconGradient)" 
        stroke-width="2.5" 
        fill="none" 
        stroke-linecap="round"
        stroke-linejoin="round"/>
</svg>

